<?xml version="1.0" encoding="UTF-8" standalone="no"?>
<!-- Created with Inkscape (http://www.inkscape.org/) -->

<svg
   width="35mm"
   height="10mm"
   viewBox="0 0 35 10"
   version="1.1"
   id="svg5"
   inkscape:version="1.1.2 (b8e25be8, 2022-02-05)"
   sodipodi:docname="crafts.svg"
   xmlns:inkscape="http://www.inkscape.org/namespaces/inkscape"
   xmlns:sodipodi="http://sodipodi.sourceforge.net/DTD/sodipodi-0.dtd"
   xmlns="http://www.w3.org/2000/svg"
   xmlns:svg="http://www.w3.org/2000/svg">
  <sodipodi:namedview
     id="namedview7"
     pagecolor="#ffffff"
     bordercolor="#666666"
     borderopacity="1.0"
     inkscape:pageshadow="2"
     inkscape:pageopacity="0.0"
     inkscape:pagecheckerboard="0"
     inkscape:document-units="mm"
     showgrid="false"
     inkscape:zoom="5.2079598"
     inkscape:cx="79.20568"
     inkscape:cy="29.666127"
     inkscape:current-layer="layer1"
     inkscape:window-width="1458"
     inkscape:window-height="1151"
     inkscape:window-x="0"
     inkscape:window-y="25"
     inkscape:window-maximized="0" />
  <defs
     id="defs2" />
  <g
     inkscape:label="Capa 1"
     inkscape:groupmode="layer"
     id="layer1">
    <g
       aria-label="CRAFTS"
       id="text1002"
       style="font-size:8.46667px;line-height:1.25;font-family:'Capture it';-inkscape-font-specification:'Capture it';stroke-width:0.264583">
      <path
         d="M 5.1069733,6.7692424 Q 5.7560295,6.6617554 6.2314529,6.2111367 l 0.7069338,0.748275 Q 6.413354,7.4513716 5.7270907,7.6704797 5.0449615,7.893722 4.3338935,7.7986373 3.6228255,7.7035527 3.0192446,7.3108116 2.4197977,6.9180706 2.0435931,6.3020873 1.791412,5.8928098 1.6797909,5.4339229 1.5599015,4.9667677 1.5847062,4.4996126 1.6301815,3.5280953 2.2089578,2.7508814 2.787734,1.9736676 3.7055079,1.6512065 4.6232817,1.3287454 5.561726,1.5767924 6.5043045,1.8207053 7.1450926,2.5483097 L 6.3720128,3.2263048 Q 5.8593824,2.6433944 5.0904368,2.523505 4.3256253,2.3994815 3.6600326,2.7963567 2.9944399,3.1932319 2.7339905,3.9249704 2.4735412,4.656709 2.7381247,5.3843135 3.0068422,6.1119179 3.6724349,6.504659 4.3421618,6.8974 5.1069733,6.7692424 Z M 3.3665103,5.9589556 Q 3.1474022,5.6240922 3.1846092,5.2313512 q 0.00413,-0.00827 0.00827,-0.028939 0.00413,-0.02067 0.00827,-0.028939 Q 3.1143322,5.0949252 3.0771257,4.9791698 3.0068457,4.7641957 3.0812557,4.561624 3.1143287,4.48721 3.1598037,4.4210641 l -0.00413,-0.00413 -0.00413,-0.00413 Q 3.0275128,4.2350291 3.035781,4.0200551 3.0564516,3.6190458 3.3458397,3.3337918 3.5938867,3.0609401 3.9494207,2.9327825 4.2884182,2.8046249 4.6398181,2.7880885 5.0118886,2.7426132 5.3591543,2.879039 5.7105542,3.0113307 5.9586012,3.2883165 L 5.7601636,3.4495471 Q 5.5493237,3.2180366 5.2558014,3.1105495 4.9664133,3.0030625 4.6563546,3.0444037 4.0031642,3.0526719 3.5360091,3.5115588 3.3127668,3.7223987 3.2920962,4.0200551 q 0,0.1116211 0.057878,0.214974 0.1819011,-0.099219 0.3886069,-0.086816 0.1405599,0 0.2439128,0.095085 0.074414,0.086816 0.045475,0.1943034 -0.020671,0.095085 -0.086816,0.14056 -0.2025717,0.1281576 -0.4382163,0.057878 -0.086817,-0.028939 -0.14056,-0.057878 -0.024805,0.028939 -0.037207,0.07028 -0.045475,0.1281576 -0.00827,0.2480469 0.00413,0.00413 0.033073,0.045475 0.00413,0 0.00413,-0.00413 l 0.00827,-0.00413 q 0.074414,-0.041341 0.090951,-0.049609 0.099219,-0.045475 0.1984375,-0.057878 0.1570965,-0.024805 0.2893882,0.066146 0.1281576,0.090951 0.078548,0.2356447 -0.057878,0.144694 -0.2149741,0.1860352 -0.1860352,0.062012 -0.3679363,0 -0.00827,0.2769858 0.1446941,0.5084963 0.1901693,0.2439128 0.4754233,0.3638022 0.2852541,0.1157553 0.5911787,0.074414 0.640788,0.00827 1.1079431,-0.4588869 L 5.9586012,5.9630897 Q 5.7064201,6.2276732 5.3632885,6.3723672 5.0242909,6.5170613 4.6563546,6.5170613 4.3008206,6.5335978 3.9494207,6.4137084 3.5814844,6.293819 3.3665103,5.9589556 Z"
         style="font-family:'Crafts Story Demo';-inkscape-font-specification:'Crafts Story Demo'"
         id="path2586" />
      <path
         d="m 10.754176,5.6654334 q 0.768946,0.7358726 1.694988,1.318783 L 11.90346,7.8606491 Q 10.741774,7.1330446 9.7785246,6.1573932 9.5759529,6.2194049 9.3609788,6.256612 V 8.3360724 H 8.3315839 V 6.2814167 Q 7.9264405,6.2318073 7.5419677,6.0747109 L 7.9471111,5.1279983 q 0.1860352,0.074414 0.3844728,0.1116211 V 2.4904321 Q 8.1744875,2.5731144 8.0545981,2.664065 L 7.4344806,1.84551 q 0.5911787,-0.4423505 1.3063808,-0.5787763 0.7193362,-0.14056 1.4304046,0.049609 0.764811,0.1901693 1.277442,0.7978844 0.243912,0.3141929 0.359668,0.6986657 0.115755,0.3844728 0.08268,0.785482 -0.06201,0.7689457 -0.49196,1.3766607 -0.194303,0.2976564 -0.475423,0.5539716 -0.0248,0.020671 -0.169499,0.1364259 z M 10.237411,4.764196 Q 10.402776,4.6112337 10.543336,4.3962597 10.820322,4.0035186 10.865797,3.5322294 10.903004,3.1022813 10.646689,2.7550155 10.340764,2.4077498 9.8984139,2.308531 9.6296964,2.238251 9.3609788,2.238251 V 5.2065465 Q 9.617294,5.1445347 9.8488045,5.0246453 10.067913,4.9130242 10.237411,4.764196 Z"
         style="font-family:'Crafts Story Demo';-inkscape-font-specification:'Crafts Story Demo'"
         id="path2588" />
      <path
         d="m 16.331098,1.5230489 2.381251,6.5277695 -1.281576,0.4919599 -0.392741,-1.0790044 h -2.62103 L 14.024261,8.5427783 12.742685,8.0508184 15.123936,1.5230489 Z m 0.946713,5.5934593 0.355534,0.9797855 0.640788,-0.2439129 -2.182814,-5.9862003 h -0.727604 l -2.182813,5.9862003 0.640788,0.2439129 0.355534,-0.9797855 z"
         style="font-family:'Crafts Story Demo';-inkscape-font-specification:'Crafts Story Demo'"
         id="path2590" />
      <path
         d="m 24.425698,0.98974791 0.0041,1.02939489 h -3.666961 v 1.8396818 h 2.699578 v 1.033529 h -2.699578 v 3.7785823 h -0.0083 l -0.711068,0.6159833 -0.0124,-0.016536 -0.843359,0.012402 -0.0041,0.00413 -0.0041,-0.00413 h -0.181901 l -0.0041,-0.1694988 h 0.0041 V 1.6015971 h 0.0041 v -0.00413 l 0.7028,-0.60771509 0.0083,-0.004134 0.0041,0.004134 z M 19.167102,1.6801453 v 0.5663739 l 0.541569,-0.4671551 -0.0041,-0.5622398 z m 0,0.7896162 V 3.0361354 L 19.708671,2.5648462 V 2.0026064 Z m 0,0.7896162 V 3.8257516 L 19.712805,3.3544624 V 2.7922226 Z m 0,0.7896162 v 0.5663739 l 0.545703,-0.4712892 h 0.0041 l -0.0041,-0.5663739 z m 0,0.7896162 -0.0083,0.5663739 0.549837,-0.4712892 0.0041,0.00413 v -0.570508 z m 0,0.7896162 -0.0041,0.5663739 0.549837,-0.4712892 0.0083,0.00827 -0.0041,-0.5787763 z m 0,0.7896162 -0.0041,0.496094 0.558106,-0.4836916 V 5.938285 Z m 0,0.7234704 V 7.6250045 L 19.725208,7.1371787 V 6.6576213 Z m 0,0.7027997 -0.0041,0.4795575 0.56224,-0.4836916 V 7.360421 Z m 0,1.2236984 0.56224,-0.4795575 V 8.071489 l -0.56224,0.4836916 z m 0.826823,0.028939 0.500228,-0.4299481 h -0.599446 l -0.504363,0.4340822 z"
         style="font-family:'Crafts Story Demo';-inkscape-font-specification:'Crafts Story Demo'"
         id="path2592" />
      <path
         d="m 24.715086,0.7582374 q 0.03721,0 2.538347,0.008268 2.505275,0.008268 2.538348,-0.008268 v 1.1079431 q -1.190626,-0.012402 -2.054656,0 V 8.3112677 H 26.70773 V 1.8248394 Q 26.294318,1.812437 24.715086,1.7834982 Z m 3.691766,8.1896842 -0.343132,0.00413 -0.07028,-6.8419624 0.343132,-0.00413 z"
         style="font-family:'Crafts Story Demo';-inkscape-font-specification:'Crafts Story Demo'"
         id="path2594" />
      <path
         d="m 32.991587,5.4669958 q 0.272851,0.4010093 0.235644,0.8847009 -0.05788,0.4547527 -0.359668,0.8020185 -0.483691,0.533301 -1.116211,0.8226891 -0.578776,0.2769858 -1.186491,0.4506187 L 30.275472,7.4389692 Q 30.775701,7.2984093 31.296599,7.0503623 31.734815,6.8519247 32.073813,6.5005248 32.177166,6.3889037 32.201971,6.2483437 32.206105,6.1243203 32.127557,6.0251015 32.053142,5.9134803 31.924985,5.7853227 31.635597,6.0829791 31.544646,6.1615273 30.953468,6.682426 30.234131,6.934607 L 30.151449,6.6906942 Q 30.837712,6.4467813 31.375147,5.9630897 31.581853,5.7853227 31.747218,5.6116898 31.569451,5.4504593 31.395818,5.3098994 30.879053,4.9130242 30.457374,4.4293326 30.188656,4.1068715 30.10184,3.6893258 30.006755,3.2428412 30.19279,2.8128932 30.349887,2.4408227 30.643409,2.1638369 30.912126,1.9075217 31.218051,1.7338888 31.817498,1.3948913 32.516163,1.2915384 l 0.14056,1.0211267 q -0.504362,0.078548 -0.926042,0.3141928 -0.384472,0.1943035 -0.587044,0.5829104 -0.06201,0.1364259 -0.03307,0.2769858 0.03307,0.1612305 0.157096,0.3100587 0.376205,0.4134116 0.785482,0.7234704 0.05374,0.045475 0.157097,0.1364258 0.103353,0.090951 0.157096,0.1364258 0.152963,-0.2728516 0.02067,-0.5498374 Q 32.255716,3.9663116 31.95806,3.908434 31.846439,3.879495 31.751354,3.8009469 q -0.09922,-0.086816 -0.136426,-0.214974 -0.07028,-0.248047 0.05374,-0.463021 0.132291,-0.1819011 0.343131,-0.2728517 0.219108,-0.099219 0.367937,-0.1364258 l 0.07028,0.2480469 q -0.322461,0.062012 -0.558106,0.2976564 -0.06615,0.1198894 -0.03307,0.2521811 0.03307,0.107487 0.177767,0.1529623 0.214974,0.045475 0.380339,0.1736329 0.169498,0.1488282 0.23151,0.3720704 0.111621,0.4010093 -0.08268,0.7648115 0.243913,0.2315106 0.425814,0.4919599 z"
         style="font-family:'Crafts Story Demo';-inkscape-font-specification:'Crafts Story Demo'"
         id="path2596" />
    </g>
    <rect
       style="fill:none;stroke-width:0.64176;stroke-linecap:round;stroke-linejoin:round"
       id="rect1716"
       width="32.060333"
       height="8.2143764"
       x="1.7080017"
       y="1.0020695"
       ry="3.2514553" />
  </g>
</svg>
